<?xml version="1.0" standalone="no"?>
<!DOCTYPE svg PUBLIC "-//W3C//DTD SVG 20010904//EN"
 "http://www.w3.org/TR/2001/REC-SVG-20010904/DTD/svg10.dtd">
<svg version="1.0" xmlns="http://www.w3.org/2000/svg"
 width="256.000000pt" height="256.000000pt" viewBox="0 0 256.000000 256.000000"
 preserveAspectRatio="xMidYMid meet">

<g transform="translate(0.000000,256.000000) scale(0.100000,-0.100000)"
fill="#000000" stroke="none">
<path d="M1117 2193 l-167 -96 0 -81 1 -81 64 -37 65 -36 0 78 0 79 97 57 c53
32 102 57 108 57 6 0 55 -25 108 -57 l97 -56 2 -311 3 -311 68 -39 67 -38 66
38 66 39 -71 38 -71 39 0 311 0 311 -162 93 c-90 51 -165 94 -169 96 -3 2 -80
-40 -172 -93z"/>
<path d="M578 1882 l-168 -97 0 -192 0 -191 72 -40 72 -40 46 26 c91 52 90 45
11 91 l-71 42 0 114 0 113 83 48 c45 26 91 53 102 60 19 12 47 -1 289 -142
148 -85 272 -153 276 -152 3 2 36 21 73 43 l67 39 0 73 c0 40 -3 73 -7 73 -5
-1 -37 -18 -72 -40 -59 -36 -66 -38 -90 -25 -14 7 -136 77 -269 154 -134 78
-245 141 -245 141 -1 -1 -77 -44 -169 -98z"/>
<path d="M1748 1938 l-68 -40 0 -74 c0 -41 2 -74 4 -74 3 0 35 18 72 39 l68
40 31 -18 c16 -10 63 -38 103 -61 l73 -43 -3 -115 -3 -116 -267 -154 -268
-155 0 -81 0 -81 65 -37 64 -36 3 81 3 81 268 154 267 154 0 192 0 191 -169
98 c-93 53 -171 97 -173 96 -1 -1 -33 -19 -70 -41z"/>
<path d="M950 1553 l0 -78 -270 -155 -270 -155 0 -191 0 -192 168 -97 167 -97
51 27 c95 51 95 52 92 133 l-3 72 -68 -41 -68 -41 -102 59 -102 59 -3 116 -3
115 268 155 268 155 3 84 2 84 -59 33 c-33 17 -62 32 -65 32 -3 0 -6 -35 -6
-77z"/>
<path d="M882 1211 c-34 -19 -62 -38 -62 -41 0 -3 29 -22 65 -43 l65 -38 2
-310 3 -311 160 -93 c88 -52 165 -94 170 -94 6 0 82 42 170 93 l160 94 2 83 3
84 -65 37 -65 36 0 -81 0 -82 -98 -55 c-53 -30 -101 -55 -107 -55 -5 0 -54 25
-107 55 l-98 55 0 312 0 311 -68 40 -68 39 -62 -36z"/>
<path d="M1947 1206 c-65 -37 -65 -34 26 -85 l58 -33 -3 -116 -3 -116 -101
-59 -102 -58 -263 152 c-145 84 -269 152 -275 152 -6 0 -39 -16 -72 -37 l-62
-37 0 -76 0 -75 48 28 c26 15 56 33 67 40 18 11 49 -5 285 -141 146 -85 268
-155 271 -155 4 0 82 43 173 96 l166 96 0 192 0 191 -65 38 c-35 20 -70 37
-77 37 -7 0 -39 -16 -71 -34z"/>
</g>
</svg>
